<svg xmlns="http://www.w3.org/2000/svg" width="400" height="400" viewBox="0 0 400 400">
  <g fill="none" stroke="#1a1a1a" stroke-width="1" opacity="0.07">
    <path d="M0 80 C80 40, 160 120, 240 80 S400 40, 400 80" />
    <path d="M0 140 C100 100, 200 180, 300 140 S400 100, 400 140" />
    <path d="M0 200 C60 160, 140 240, 220 200 S380 160, 400 200" />
    <path d="M0 260 C90 220, 180 300, 270 260 S400 220, 400 260" />
    <path d="M0 320 C70 280, 160 360, 250 320 S400 280, 400 320" />
    <ellipse cx="120" cy="120" rx="90" ry="50" />
    <ellipse cx="300" cy="280" rx="110" ry="60" />
    <ellipse cx="200" cy="200" rx="70" ry="40" />
  </g>
</svg>
